<svg xmlns="http://www.w3.org/2000/svg" viewBox="0 0 400 400" width="100%" height="100%">
  <defs>
    <linearGradient id="carBody" x1="0%" y1="0%" x2="100%" y2="100%">
      <stop offset="0%" stop-color="#0284c7"/>
      <stop offset="100%" stop-color="#0369a1"/>
    </linearGradient>
  </defs>
  <rect width="400" height="400" fill="#f0f9ff"/>
  <!-- Car Cabin & Body -->
  <path d="M70 240 L100 170 L180 150 L270 150 L320 200 L340 240 L340 270 L70 270 Z" fill="url(#carBody)" stroke="#0c4a6e" stroke-width="4"/>
  <!-- Windows -->
  <path d="M115 175 L175 160 L175 220 L95 220 Z" fill="#bae6fd"/>
  <path d="M190 160 L260 160 L295 205 L295 220 L190 220 Z" fill="#bae6fd"/>
  <!-- Wheels -->
  <circle cx="130" cy="270" r="32" fill="#1e293b" stroke="#64748b" stroke-width="6"/>
  <circle cx="130" cy="270" r="14" fill="#94a3b8"/>
  <circle cx="280" cy="270" r="32" fill="#1e293b" stroke="#64748b" stroke-width="6"/>
  <circle cx="280" cy="270" r="14" fill="#94a3b8"/>
  <!-- Headlights -->
  <path d="M330 225 L340 225 L340 240 L325 240 Z" fill="#fef08a"/>
  <text x="200" y="350" fill="#0369a1" font-family="system-ui, sans-serif" font-size="16" font-weight="bold" text-anchor="middle">Toyota Harrier 2018</text>
</svg>
